<svg xmlns="http://www.w3.org/2000/svg" viewBox="0 0 248 48" width="248" height="48"><svg width="44" height="48" viewBox="10 8 44 48"><defs><linearGradient id="ns-g" x1="0" y1="10" x2="0" y2="48" gradientUnits="userSpaceOnUse"><stop offset="0" stop-color="#2daf74"/><stop offset="1" stop-color="#1a7d51"/></linearGradient><clipPath id="ns-c"><circle cx="32" cy="29" r="19"/></clipPath></defs><circle cx="32" cy="29" r="19" fill="url(#ns-g)"/><g clip-path="url(#ns-c)"><path d="M10 42L21 30L26 35L35 23L46 36L54 42V56H10Z" fill="#0f3b28"/><path d="M35 23L38.5 27.5L36 27L34 29.5L32.5 26.8Z" fill="#2daf74"/></g><path d="M22.5 15.4C22.93 18.44 23.06 18.57 26.1 19C23.06 19.43 22.93 19.56 22.5 22.6C22.07 19.56 21.94 19.43 18.9 19C21.94 18.57 22.07 18.44 22.5 15.4Z" fill="#ffffff"/><path d="M12 42.5C19 40 26 40.5 32 44.5C38 40.5 45 40 52 42.5V51C45 48.5 38 49 32 53C26 49 19 48.5 12 51Z" fill="#1f8f5c" stroke="#ffffff" stroke-width="2" stroke-linejoin="round" paint-order="stroke"/><path d="M32 44.5V53" stroke="#145c40" stroke-width="1.4"/></svg><text x="56" y="33" font-family="Inter, 'Segoe UI', 'Helvetica Neue', Arial, sans-serif" font-size="26" letter-spacing="-0.4"><tspan font-weight="700" fill="#171917">Dreamer</tspan><tspan dx="7" font-weight="400" fill="#59615c">Studio</tspan></text></svg>